# xmcd
#
# Track frame offsets:
#       150
#       10717
#       28780
#       49405
#       70390
#       82982
#       100537
#       118535
#       130680
#       144045
#       163622
#       186267
#       197352
#       207372
#
# Disc length: 3010 seconds
#
# Revision: 5
# Processed by: cddbd v1.4PL0 Copyright (c) Steve Scherf et al.
# Submitted via: CD-DA_X-Tractor v0.23
#
DISCID=b20bc00e
DTITLE=蘇永康 - 越唱越開心演唱會 CD1
DYEAR=1900
DGENRE=
TTITLE0=Opening Teaser
TTITLE1=沒有季節的火花
TTITLE2=信不信由你
TTITLE3=讓我暖一些
TTITLE4=燈火欄柵處
TTITLE5=從來未發生
TTITLE6=開玩笑
TTITLE7=割愛
TTITLE8=Dream A Little Dream of Me
TTITLE9=從不喜歡孤單一個 (蘇永康、彭家麗)
TTITLE10=絕情
TTITLE11=La La La Love Song
TTITLE12=熱情的沙漠
TTITLE13=山水有相逢
EXTD=
EXTT0=
EXTT1=
EXTT2=
EXTT3=
EXTT4=
EXTT5=
EXTT6=
EXTT7=
EXTT8=
EXTT9=
EXTT10=
EXTT11=
EXTT12=
EXTT13=
PLAYORDER=
